<mxfile host="app.diagrams.net" modified="2020-10-22T14:31:14.816Z" agent="5.0 (Windows NT 10.0; Win64; x64) AppleWebKit/537.36 (KHTML, like Gecko) Chrome/86.0.4240.75 Safari/537.36" etag="dhm5EvUKFBsDbShUhg58" version="13.8.1" type="github">
  <diagram id="kgpKYQtTHZ0yAKxKKP6v" name="Page-1">
    <mxGraphModel dx="1128" dy="597" grid="1" gridSize="10" guides="1" tooltips="1" connect="1" arrows="1" fold="1" page="1" pageScale="1" pageWidth="850" pageHeight="1100" math="0" shadow="0">
      <root>
        <mxCell id="0" />
        <mxCell id="1" parent="0" />
        <mxCell id="3nuBFxr9cyL0pnOWT2aG-1" value=":DOMSUM" style="shape=umlLifeline;perimeter=lifelinePerimeter;container=1;collapsible=0;recursiveResize=0;rounded=0;shadow=0;strokeWidth=1;fillColor=#e1d5e7;strokeColor=#9673a6;" parent="1" vertex="1">
          <mxGeometry x="120" y="90" width="100" height="1240" as="geometry" />
        </mxCell>
        <mxCell id="3nuBFxr9cyL0pnOWT2aG-2" value="" style="points=[];perimeter=orthogonalPerimeter;rounded=0;shadow=0;strokeWidth=1;fillColor=#e1d5e7;strokeColor=#9673a6;" parent="3nuBFxr9cyL0pnOWT2aG-1" vertex="1">
          <mxGeometry x="45" y="70" width="10" height="1080" as="geometry" />
        </mxCell>
        <mxCell id="4wuBC6g0dBS8VItcJeyY-55" value="loop" style="shape=umlFrame;whiteSpace=wrap;html=1;" parent="3nuBFxr9cyL0pnOWT2aG-1" vertex="1">
          <mxGeometry x="-60" y="601" width="790" height="560" as="geometry" />
        </mxCell>
        <mxCell id="4wuBC6g0dBS8VItcJeyY-59" value="" style="endArrow=classic;html=1;entryX=0;entryY=0.25;entryDx=0;entryDy=0;" parent="3nuBFxr9cyL0pnOWT2aG-1" edge="1">
          <mxGeometry width="50" height="50" relative="1" as="geometry">
            <mxPoint x="57.61857142857133" y="672.8399999999999" as="sourcePoint" />
            <mxPoint x="230" y="672" as="targetPoint" />
            <Array as="points">
              <mxPoint x="127.69" y="672.8399999999999" />
            </Array>
          </mxGeometry>
        </mxCell>
        <mxCell id="4wuBC6g0dBS8VItcJeyY-60" value="" style="rounded=0;whiteSpace=wrap;html=1;shadow=0;glass=0;sketch=0;fillColor=#d5e8d4;strokeColor=#82b366;" parent="3nuBFxr9cyL0pnOWT2aG-1" vertex="1">
          <mxGeometry x="230" y="660" width="40" height="40" as="geometry" />
        </mxCell>
        <mxCell id="4wuBC6g0dBS8VItcJeyY-62" value="full command" style="text;html=1;strokeColor=none;fillColor=none;align=center;verticalAlign=middle;whiteSpace=wrap;rounded=0;shadow=0;glass=0;sketch=0;" parent="3nuBFxr9cyL0pnOWT2aG-1" vertex="1">
          <mxGeometry x="110" y="650" width="50" height="20" as="geometry" />
        </mxCell>
        <mxCell id="4wuBC6g0dBS8VItcJeyY-63" value="" style="verticalAlign=bottom;endArrow=open;dashed=1;endSize=8;shadow=0;strokeWidth=1;" parent="3nuBFxr9cyL0pnOWT2aG-1" edge="1">
          <mxGeometry relative="1" as="geometry">
            <mxPoint x="55" y="692.5" as="targetPoint" />
            <mxPoint x="230" y="693" as="sourcePoint" />
          </mxGeometry>
        </mxCell>
        <mxCell id="4wuBC6g0dBS8VItcJeyY-64" value="" style="endArrow=classic;html=1;entryX=-0.072;entryY=0.172;entryDx=0;entryDy=0;entryPerimeter=0;" parent="3nuBFxr9cyL0pnOWT2aG-1" target="4wuBC6g0dBS8VItcJeyY-66" edge="1">
          <mxGeometry width="50" height="50" relative="1" as="geometry">
            <mxPoint x="57.618571428571386" y="722.8399999999999" as="sourcePoint" />
            <mxPoint x="470" y="724" as="targetPoint" />
            <Array as="points">
              <mxPoint x="127.69" y="722.8399999999999" />
              <mxPoint x="410" y="723" />
            </Array>
          </mxGeometry>
        </mxCell>
        <mxCell id="4wuBC6g0dBS8VItcJeyY-69" value="Parse input" style="text;html=1;strokeColor=none;fillColor=none;align=center;verticalAlign=middle;whiteSpace=wrap;rounded=0;shadow=0;glass=0;sketch=0;" parent="3nuBFxr9cyL0pnOWT2aG-1" vertex="1">
          <mxGeometry x="130" y="700" width="80" height="20" as="geometry" />
        </mxCell>
        <mxCell id="4wuBC6g0dBS8VItcJeyY-70" value="" style="verticalAlign=bottom;endArrow=open;dashed=1;endSize=8;shadow=0;strokeWidth=1;exitX=-0.205;exitY=0.811;exitDx=0;exitDy=0;exitPerimeter=0;" parent="3nuBFxr9cyL0pnOWT2aG-1" source="4wuBC6g0dBS8VItcJeyY-66" edge="1">
          <mxGeometry relative="1" as="geometry">
            <mxPoint x="60" y="799" as="targetPoint" />
            <mxPoint x="455" y="799" as="sourcePoint" />
          </mxGeometry>
        </mxCell>
        <mxCell id="4wuBC6g0dBS8VItcJeyY-72" value="" style="edgeStyle=elbowEdgeStyle;elbow=horizontal;endArrow=classic;html=1;entryX=0;entryY=0.5;entryDx=0;entryDy=0;" parent="3nuBFxr9cyL0pnOWT2aG-1" edge="1" target="LfC7R43gUgTX7H64-Cro-2">
          <mxGeometry width="50" height="50" relative="1" as="geometry">
            <mxPoint x="491" y="730" as="sourcePoint" />
            <mxPoint x="492" y="736" as="targetPoint" />
            <Array as="points">
              <mxPoint x="540" y="730" />
              <mxPoint x="511" y="730" />
              <mxPoint x="501" y="748" />
              <mxPoint x="571" y="748" />
            </Array>
          </mxGeometry>
        </mxCell>
        <mxCell id="4wuBC6g0dBS8VItcJeyY-74" value="" style="verticalAlign=bottom;endArrow=open;dashed=1;endSize=8;shadow=0;strokeWidth=1;exitX=0;exitY=0.5;exitDx=0;exitDy=0;" parent="3nuBFxr9cyL0pnOWT2aG-1" edge="1" source="LfC7R43gUgTX7H64-Cro-6">
          <mxGeometry relative="1" as="geometry">
            <mxPoint x="493" y="751" as="targetPoint" />
            <mxPoint x="581.5" y="749" as="sourcePoint" />
            <Array as="points" />
          </mxGeometry>
        </mxCell>
        <mxCell id="4wuBC6g0dBS8VItcJeyY-76" value="Result" style="text;html=1;strokeColor=none;fillColor=none;align=center;verticalAlign=middle;whiteSpace=wrap;rounded=0;shadow=0;glass=0;sketch=0;" parent="3nuBFxr9cyL0pnOWT2aG-1" vertex="1">
          <mxGeometry x="170" y="778" width="40" height="20" as="geometry" />
        </mxCell>
        <mxCell id="4wuBC6g0dBS8VItcJeyY-79" value="" style="endArrow=classic;html=1;entryX=-0.211;entryY=0.341;entryDx=0;entryDy=0;entryPerimeter=0;" parent="3nuBFxr9cyL0pnOWT2aG-1" target="4wuBC6g0dBS8VItcJeyY-77" edge="1">
          <mxGeometry width="50" height="50" relative="1" as="geometry">
            <mxPoint x="57" y="830" as="sourcePoint" />
            <mxPoint x="229" y="830" as="targetPoint" />
            <Array as="points">
              <mxPoint x="126.69" y="830.8399999999999" />
            </Array>
          </mxGeometry>
        </mxCell>
        <mxCell id="4wuBC6g0dBS8VItcJeyY-81" value="update()" style="text;html=1;strokeColor=none;fillColor=none;align=center;verticalAlign=middle;whiteSpace=wrap;rounded=0;shadow=0;glass=0;sketch=0;" parent="3nuBFxr9cyL0pnOWT2aG-1" vertex="1">
          <mxGeometry x="130" y="810" width="40" height="20" as="geometry" />
        </mxCell>
        <mxCell id="4wuBC6g0dBS8VItcJeyY-83" value="" style="verticalAlign=bottom;endArrow=open;dashed=1;endSize=8;shadow=0;strokeWidth=1;" parent="3nuBFxr9cyL0pnOWT2aG-1" edge="1">
          <mxGeometry relative="1" as="geometry">
            <mxPoint x="60" y="850" as="targetPoint" />
            <mxPoint x="237.5" y="850.5" as="sourcePoint" />
          </mxGeometry>
        </mxCell>
        <mxCell id="4wuBC6g0dBS8VItcJeyY-84" value="opt" style="shape=umlFrame;whiteSpace=wrap;html=1;rounded=0;shadow=0;glass=0;sketch=0;" parent="3nuBFxr9cyL0pnOWT2aG-1" vertex="1">
          <mxGeometry y="880" width="180" height="120" as="geometry" />
        </mxCell>
        <mxCell id="4wuBC6g0dBS8VItcJeyY-85" value="[isExit]" style="text;html=1;strokeColor=none;fillColor=none;align=center;verticalAlign=middle;whiteSpace=wrap;rounded=0;shadow=0;glass=0;sketch=0;" parent="3nuBFxr9cyL0pnOWT2aG-1" vertex="1">
          <mxGeometry x="80" y="890" width="40" height="20" as="geometry" />
        </mxCell>
        <mxCell id="4wuBC6g0dBS8VItcJeyY-86" value="" style="html=1;points=[];perimeter=orthogonalPerimeter;rounded=0;shadow=0;glass=0;sketch=0;fillColor=#e1d5e7;strokeColor=#9673a6;" parent="3nuBFxr9cyL0pnOWT2aG-1" vertex="1">
          <mxGeometry x="50" y="940" width="10" height="30" as="geometry" />
        </mxCell>
        <mxCell id="4wuBC6g0dBS8VItcJeyY-87" value="" style="edgeStyle=elbowEdgeStyle;elbow=horizontal;endArrow=classic;html=1;" parent="3nuBFxr9cyL0pnOWT2aG-1" edge="1">
          <mxGeometry width="50" height="50" relative="1" as="geometry">
            <mxPoint x="57" y="920" as="sourcePoint" />
            <mxPoint x="60" y="940" as="targetPoint" />
            <Array as="points">
              <mxPoint x="117" y="940" />
            </Array>
          </mxGeometry>
        </mxCell>
        <mxCell id="4wuBC6g0dBS8VItcJeyY-88" value="" style="verticalAlign=bottom;endArrow=open;dashed=1;endSize=8;shadow=0;strokeWidth=1;" parent="3nuBFxr9cyL0pnOWT2aG-1" edge="1">
          <mxGeometry relative="1" as="geometry">
            <mxPoint x="59" y="990" as="targetPoint" />
            <mxPoint x="61" y="970" as="sourcePoint" />
            <Array as="points">
              <mxPoint x="108" y="970" />
              <mxPoint x="99" y="990" />
            </Array>
          </mxGeometry>
        </mxCell>
        <mxCell id="4wuBC6g0dBS8VItcJeyY-89" value="Timer" style="text;html=1;strokeColor=none;fillColor=none;align=center;verticalAlign=middle;whiteSpace=wrap;rounded=0;shadow=0;glass=0;sketch=0;" parent="3nuBFxr9cyL0pnOWT2aG-1" vertex="1">
          <mxGeometry x="120" y="920" width="40" height="20" as="geometry" />
        </mxCell>
        <mxCell id="4wuBC6g0dBS8VItcJeyY-91" value="" style="endArrow=classic;html=1;entryX=-0.035;entryY=0.192;entryDx=0;entryDy=0;entryPerimeter=0;" parent="3nuBFxr9cyL0pnOWT2aG-1" target="4wuBC6g0dBS8VItcJeyY-93" edge="1">
          <mxGeometry width="50" height="50" relative="1" as="geometry">
            <mxPoint x="57" y="1024.5" as="sourcePoint" />
            <mxPoint x="634.3199999999999" y="1024.07" as="targetPoint" />
            <Array as="points">
              <mxPoint x="126.69" y="1025.34" />
              <mxPoint x="377" y="1025" />
            </Array>
          </mxGeometry>
        </mxCell>
        <mxCell id="4wuBC6g0dBS8VItcJeyY-93" value="" style="rounded=0;whiteSpace=wrap;html=1;shadow=0;glass=0;sketch=0;fillColor=#fff2cc;strokeColor=#d6b656;" parent="3nuBFxr9cyL0pnOWT2aG-1" vertex="1">
          <mxGeometry x="640" y="1010" width="30" height="70" as="geometry" />
        </mxCell>
        <mxCell id="4wuBC6g0dBS8VItcJeyY-80" value="save()" style="text;html=1;strokeColor=none;fillColor=none;align=center;verticalAlign=middle;whiteSpace=wrap;rounded=0;shadow=0;glass=0;sketch=0;" parent="3nuBFxr9cyL0pnOWT2aG-1" vertex="1">
          <mxGeometry x="285" y="1000" width="40" height="20" as="geometry" />
        </mxCell>
        <mxCell id="4wuBC6g0dBS8VItcJeyY-94" value="" style="verticalAlign=bottom;endArrow=open;dashed=1;endSize=8;shadow=0;strokeWidth=1;exitX=0;exitY=0.75;exitDx=0;exitDy=0;" parent="3nuBFxr9cyL0pnOWT2aG-1" source="4wuBC6g0dBS8VItcJeyY-93" edge="1">
          <mxGeometry relative="1" as="geometry">
            <mxPoint x="54.99857142857127" y="1060" as="targetPoint" />
            <mxPoint x="450" y="1060" as="sourcePoint" />
          </mxGeometry>
        </mxCell>
        <mxCell id="LfC7R43gUgTX7H64-Cro-2" value=":Command" style="rounded=0;whiteSpace=wrap;html=1;fillColor=#dae8fc;strokeColor=#6c8ebf;" vertex="1" parent="3nuBFxr9cyL0pnOWT2aG-1">
          <mxGeometry x="563" y="720" width="80" height="20" as="geometry" />
        </mxCell>
        <mxCell id="LfC7R43gUgTX7H64-Cro-6" value="" style="rounded=0;whiteSpace=wrap;html=1;fillColor=#dae8fc;strokeColor=#6c8ebf;" vertex="1" parent="3nuBFxr9cyL0pnOWT2aG-1">
          <mxGeometry x="581.5" y="740" width="43" height="20" as="geometry" />
        </mxCell>
        <mxCell id="LfC7R43gUgTX7H64-Cro-8" value="" style="endArrow=none;dashed=1;html=1;exitX=0.39;exitY=0.923;exitDx=0;exitDy=0;exitPerimeter=0;fillColor=#dae8fc;strokeColor=#6c8ebf;" edge="1" parent="3nuBFxr9cyL0pnOWT2aG-1">
          <mxGeometry width="50" height="50" relative="1" as="geometry">
            <mxPoint x="603.27" y="761.46" as="sourcePoint" />
            <mxPoint x="603" y="1110" as="targetPoint" />
          </mxGeometry>
        </mxCell>
        <mxCell id="LfC7R43gUgTX7H64-Cro-9" value="Result" style="text;html=1;strokeColor=none;fillColor=none;align=center;verticalAlign=middle;whiteSpace=wrap;rounded=0;shadow=0;glass=0;sketch=0;" vertex="1" parent="3nuBFxr9cyL0pnOWT2aG-1">
          <mxGeometry x="510" y="730" width="40" height="20" as="geometry" />
        </mxCell>
        <mxCell id="LfC7R43gUgTX7H64-Cro-10" value="" style="shape=umlDestroy;whiteSpace=wrap;html=1;strokeWidth=3;fillColor=#dae8fc;strokeColor=#6c8ebf;" vertex="1" parent="3nuBFxr9cyL0pnOWT2aG-1">
          <mxGeometry x="589" y="1098" width="30" height="30" as="geometry" />
        </mxCell>
        <mxCell id="3nuBFxr9cyL0pnOWT2aG-5" value=":UI" style="shape=umlLifeline;perimeter=lifelinePerimeter;container=1;collapsible=0;recursiveResize=0;rounded=0;shadow=0;strokeWidth=1;fillColor=#d5e8d4;strokeColor=#82b366;" parent="1" vertex="1">
          <mxGeometry x="300" y="160" width="140" height="1150" as="geometry" />
        </mxCell>
        <mxCell id="4wuBC6g0dBS8VItcJeyY-18" value="" style="rounded=0;whiteSpace=wrap;html=1;shadow=0;glass=0;sketch=0;fillColor=#d5e8d4;strokeColor=#82b366;" parent="3nuBFxr9cyL0pnOWT2aG-5" vertex="1">
          <mxGeometry x="50" y="160" width="50" height="20" as="geometry" />
        </mxCell>
        <mxCell id="4wuBC6g0dBS8VItcJeyY-25" value="" style="rounded=0;whiteSpace=wrap;html=1;shadow=0;glass=0;sketch=0;fillColor=#d5e8d4;strokeColor=#82b366;" parent="3nuBFxr9cyL0pnOWT2aG-5" vertex="1">
          <mxGeometry x="60" y="200" width="20" height="40" as="geometry" />
        </mxCell>
        <mxCell id="4wuBC6g0dBS8VItcJeyY-77" value="" style="rounded=0;whiteSpace=wrap;html=1;shadow=0;glass=0;sketch=0;fillColor=#d5e8d4;strokeColor=#82b366;" parent="3nuBFxr9cyL0pnOWT2aG-5" vertex="1">
          <mxGeometry x="60" y="740" width="20" height="60" as="geometry" />
        </mxCell>
        <mxCell id="4wuBC6g0dBS8VItcJeyY-103" value="" style="shape=umlDestroy;whiteSpace=wrap;html=1;strokeWidth=3;rounded=0;shadow=0;glass=0;sketch=0;fillColor=#d5e8d4;strokeColor=#82b366;" parent="3nuBFxr9cyL0pnOWT2aG-5" vertex="1">
          <mxGeometry x="55" y="1130" width="30" height="30" as="geometry" />
        </mxCell>
        <mxCell id="3nuBFxr9cyL0pnOWT2aG-10" value="" style="verticalAlign=bottom;endArrow=open;dashed=1;endSize=8;exitX=-0.151;exitY=0.742;shadow=0;strokeWidth=1;exitDx=0;exitDy=0;exitPerimeter=0;" parent="1" source="4wuBC6g0dBS8VItcJeyY-33" edge="1">
          <mxGeometry relative="1" as="geometry">
            <mxPoint x="180" y="447" as="targetPoint" />
            <mxPoint x="460" y="533" as="sourcePoint" />
          </mxGeometry>
        </mxCell>
        <mxCell id="4wuBC6g0dBS8VItcJeyY-1" value="" style="endArrow=classic;html=1;" parent="1" edge="1">
          <mxGeometry width="50" height="50" relative="1" as="geometry">
            <mxPoint x="180" y="180" as="sourcePoint" />
            <mxPoint x="298" y="180" as="targetPoint" />
            <Array as="points">
              <mxPoint x="180" y="180" />
              <mxPoint x="270" y="180" />
            </Array>
          </mxGeometry>
        </mxCell>
        <mxCell id="4wuBC6g0dBS8VItcJeyY-3" value="" style="endArrow=none;dashed=1;html=1;" parent="1" edge="1">
          <mxGeometry width="50" height="50" relative="1" as="geometry">
            <mxPoint x="80" y="1360" as="sourcePoint" />
            <mxPoint x="80" y="140" as="targetPoint" />
          </mxGeometry>
        </mxCell>
        <mxCell id="3nuBFxr9cyL0pnOWT2aG-3" value="Execute program" style="verticalAlign=bottom;startArrow=oval;endArrow=block;startSize=8;shadow=0;strokeWidth=1;" parent="1" edge="1">
          <mxGeometry x="-0.1667" y="10" relative="1" as="geometry">
            <mxPoint x="90" y="160" as="sourcePoint" />
            <mxPoint x="150" y="160" as="targetPoint" />
            <mxPoint as="offset" />
          </mxGeometry>
        </mxCell>
        <mxCell id="4wuBC6g0dBS8VItcJeyY-7" value="Alt" style="shape=umlFrame;whiteSpace=wrap;html=1;rounded=0;shadow=0;glass=0;sketch=0;fillColor=#d5e8d4;strokeColor=#82b366;" parent="1" vertex="1">
          <mxGeometry x="280" y="232" width="180" height="80" as="geometry" />
        </mxCell>
        <mxCell id="4wuBC6g0dBS8VItcJeyY-10" value="" style="endArrow=none;dashed=1;html=1;exitX=-0.006;exitY=0.704;exitDx=0;exitDy=0;exitPerimeter=0;entryX=0.996;entryY=0.693;entryDx=0;entryDy=0;entryPerimeter=0;" parent="1" source="4wuBC6g0dBS8VItcJeyY-7" target="4wuBC6g0dBS8VItcJeyY-7" edge="1">
          <mxGeometry width="50" height="50" relative="1" as="geometry">
            <mxPoint x="320" y="325" as="sourcePoint" />
            <mxPoint x="459" y="290" as="targetPoint" />
          </mxGeometry>
        </mxCell>
        <mxCell id="4wuBC6g0dBS8VItcJeyY-16" value=":Parser" style="rounded=0;whiteSpace=wrap;html=1;shadow=0;glass=0;sketch=0;fillColor=#f8cecc;strokeColor=#b85450;" parent="1" vertex="1">
          <mxGeometry x="530" y="420" width="120" height="20" as="geometry" />
        </mxCell>
        <mxCell id="4wuBC6g0dBS8VItcJeyY-17" value=":Storage" style="rounded=0;whiteSpace=wrap;html=1;shadow=0;glass=0;sketch=0;fillColor=#fff2cc;strokeColor=#d6b656;" parent="1" vertex="1">
          <mxGeometry x="730" y="470" width="90" height="20" as="geometry" />
        </mxCell>
        <mxCell id="4wuBC6g0dBS8VItcJeyY-21" value="" style="html=1;points=[];perimeter=orthogonalPerimeter;rounded=0;shadow=0;glass=0;sketch=0;fillColor=#e1d5e7;strokeColor=#9673a6;" parent="1" vertex="1">
          <mxGeometry x="170" y="610" width="10" height="30" as="geometry" />
        </mxCell>
        <mxCell id="4wuBC6g0dBS8VItcJeyY-23" value="UI" style="html=1;verticalAlign=bottom;endArrow=open;dashed=1;endSize=8;" parent="1" edge="1">
          <mxGeometry relative="1" as="geometry">
            <mxPoint x="177.92857142857133" y="330" as="targetPoint" />
            <mxPoint x="348" y="330" as="sourcePoint" />
            <Array as="points">
              <mxPoint x="308" y="330" />
              <mxPoint x="268" y="330" />
            </Array>
          </mxGeometry>
        </mxCell>
        <mxCell id="4wuBC6g0dBS8VItcJeyY-24" value="UI" style="text;html=1;strokeColor=none;fillColor=none;align=center;verticalAlign=middle;whiteSpace=wrap;rounded=0;shadow=0;glass=0;sketch=0;" parent="1" vertex="1">
          <mxGeometry x="210" y="160" width="40" height="20" as="geometry" />
        </mxCell>
        <mxCell id="4wuBC6g0dBS8VItcJeyY-26" value="" style="endArrow=classic;html=1;exitX=0.856;exitY=0.193;exitDx=0;exitDy=0;exitPerimeter=0;" parent="1" source="3nuBFxr9cyL0pnOWT2aG-2" edge="1">
          <mxGeometry width="50" height="50" relative="1" as="geometry">
            <mxPoint x="182" y="368.80000000000007" as="sourcePoint" />
            <mxPoint x="359" y="368" as="targetPoint" />
            <Array as="points" />
          </mxGeometry>
        </mxCell>
        <mxCell id="4wuBC6g0dBS8VItcJeyY-27" value="showWelcome()" style="text;html=1;strokeColor=none;fillColor=none;align=center;verticalAlign=middle;whiteSpace=wrap;rounded=0;shadow=0;glass=0;sketch=0;" parent="1" vertex="1">
          <mxGeometry x="240" y="347" width="40" height="20" as="geometry" />
        </mxCell>
        <mxCell id="4wuBC6g0dBS8VItcJeyY-28" value="" style="html=1;verticalAlign=bottom;endArrow=open;dashed=1;endSize=8;" parent="1" edge="1">
          <mxGeometry relative="1" as="geometry">
            <mxPoint x="180" y="388" as="targetPoint" />
            <mxPoint x="360" y="388" as="sourcePoint" />
            <Array as="points">
              <mxPoint x="313.07" y="388.43" />
              <mxPoint x="273.07" y="388.43" />
            </Array>
          </mxGeometry>
        </mxCell>
        <mxCell id="4wuBC6g0dBS8VItcJeyY-30" value="" style="endArrow=classic;html=1;" parent="1" edge="1">
          <mxGeometry width="50" height="50" relative="1" as="geometry">
            <mxPoint x="180" y="430" as="sourcePoint" />
            <mxPoint x="530" y="430" as="targetPoint" />
          </mxGeometry>
        </mxCell>
        <mxCell id="4wuBC6g0dBS8VItcJeyY-32" value="" style="endArrow=none;dashed=1;html=1;fillColor=#f8cecc;strokeColor=#b85450;" parent="1" source="4wuBC6g0dBS8VItcJeyY-33" edge="1">
          <mxGeometry width="50" height="50" relative="1" as="geometry">
            <mxPoint x="600" y="830" as="sourcePoint" />
            <mxPoint x="600" y="440" as="targetPoint" />
          </mxGeometry>
        </mxCell>
        <mxCell id="4wuBC6g0dBS8VItcJeyY-33" value="" style="rounded=0;whiteSpace=wrap;html=1;shadow=0;glass=0;sketch=0;fillColor=#f8cecc;strokeColor=#b85450;" parent="1" vertex="1">
          <mxGeometry x="580" y="440" width="30" height="10" as="geometry" />
        </mxCell>
        <mxCell id="4wuBC6g0dBS8VItcJeyY-34" value="" style="endArrow=none;dashed=1;html=1;fillColor=#f8cecc;strokeColor=#b85450;" parent="1" source="4wuBC6g0dBS8VItcJeyY-66" edge="1">
          <mxGeometry width="50" height="50" relative="1" as="geometry">
            <mxPoint x="600.7857142857142" y="781" as="sourcePoint" />
            <mxPoint x="596.0714285714287" y="451" as="targetPoint" />
          </mxGeometry>
        </mxCell>
        <mxCell id="4wuBC6g0dBS8VItcJeyY-35" value="" style="endArrow=classic;html=1;entryX=-0.059;entryY=0.458;entryDx=0;entryDy=0;entryPerimeter=0;" parent="1" edge="1">
          <mxGeometry width="50" height="50" relative="1" as="geometry">
            <mxPoint x="174.92857142857133" y="480" as="sourcePoint" />
            <mxPoint x="729.69" y="479.15999999999997" as="targetPoint" />
            <Array as="points">
              <mxPoint x="245" y="480" />
            </Array>
          </mxGeometry>
        </mxCell>
        <mxCell id="4wuBC6g0dBS8VItcJeyY-36" value="" style="rounded=0;whiteSpace=wrap;html=1;shadow=0;glass=0;sketch=0;fillColor=#fff2cc;strokeColor=#d6b656;" parent="1" vertex="1">
          <mxGeometry x="757.5" y="490" width="35" height="10" as="geometry" />
        </mxCell>
        <mxCell id="4wuBC6g0dBS8VItcJeyY-37" value="" style="verticalAlign=bottom;endArrow=open;dashed=1;endSize=8;exitX=0;exitY=0.75;shadow=0;strokeWidth=1;exitDx=0;exitDy=0;" parent="1" source="4wuBC6g0dBS8VItcJeyY-36" edge="1">
          <mxGeometry relative="1" as="geometry">
            <mxPoint x="180" y="500" as="targetPoint" />
            <mxPoint x="575.47" y="500.41999999999996" as="sourcePoint" />
          </mxGeometry>
        </mxCell>
        <mxCell id="4wuBC6g0dBS8VItcJeyY-38" value="Parser" style="text;html=1;strokeColor=none;fillColor=none;align=center;verticalAlign=middle;whiteSpace=wrap;rounded=0;shadow=0;glass=0;sketch=0;" parent="1" vertex="1">
          <mxGeometry x="330" y="410" width="40" height="20" as="geometry" />
        </mxCell>
        <mxCell id="4wuBC6g0dBS8VItcJeyY-40" value="Parser" style="text;html=1;strokeColor=none;fillColor=none;align=center;verticalAlign=middle;whiteSpace=wrap;rounded=0;shadow=0;glass=0;sketch=0;" parent="1" vertex="1">
          <mxGeometry x="360" y="455" width="40" height="20" as="geometry" />
        </mxCell>
        <mxCell id="4wuBC6g0dBS8VItcJeyY-42" value="" style="endArrow=none;dashed=1;html=1;entryX=0.5;entryY=1;entryDx=0;entryDy=0;fillColor=#fff2cc;strokeColor=#d6b656;" parent="1" source="4wuBC6g0dBS8VItcJeyY-45" target="4wuBC6g0dBS8VItcJeyY-36" edge="1">
          <mxGeometry width="50" height="50" relative="1" as="geometry">
            <mxPoint x="780" y="930" as="sourcePoint" />
            <mxPoint x="780" y="520" as="targetPoint" />
          </mxGeometry>
        </mxCell>
        <mxCell id="4wuBC6g0dBS8VItcJeyY-43" value="" style="endArrow=classic;html=1;entryX=0;entryY=0.25;entryDx=0;entryDy=0;" parent="1" target="4wuBC6g0dBS8VItcJeyY-45" edge="1">
          <mxGeometry width="50" height="50" relative="1" as="geometry">
            <mxPoint x="174.92857142857133" y="551" as="sourcePoint" />
            <mxPoint x="775" y="550" as="targetPoint" />
            <Array as="points">
              <mxPoint x="385" y="551" />
              <mxPoint x="750" y="551" />
            </Array>
          </mxGeometry>
        </mxCell>
        <mxCell id="4wuBC6g0dBS8VItcJeyY-44" value="Load()" style="text;html=1;strokeColor=none;fillColor=none;align=center;verticalAlign=middle;whiteSpace=wrap;rounded=0;shadow=0;glass=0;sketch=0;" parent="1" vertex="1">
          <mxGeometry x="400" y="530" width="40" height="20" as="geometry" />
        </mxCell>
        <mxCell id="4wuBC6g0dBS8VItcJeyY-45" value="" style="rounded=0;whiteSpace=wrap;html=1;shadow=0;glass=0;sketch=0;fillColor=#fff2cc;strokeColor=#d6b656;" parent="1" vertex="1">
          <mxGeometry x="760" y="540" width="30" height="40" as="geometry" />
        </mxCell>
        <mxCell id="4wuBC6g0dBS8VItcJeyY-46" value="" style="endArrow=none;dashed=1;html=1;entryX=0.5;entryY=1;entryDx=0;entryDy=0;fillColor=#fff2cc;strokeColor=#d6b656;" parent="1" target="4wuBC6g0dBS8VItcJeyY-45" edge="1">
          <mxGeometry width="50" height="50" relative="1" as="geometry">
            <mxPoint x="775" y="1280" as="sourcePoint" />
            <mxPoint x="775" y="500" as="targetPoint" />
            <Array as="points" />
          </mxGeometry>
        </mxCell>
        <mxCell id="4wuBC6g0dBS8VItcJeyY-47" value="" style="verticalAlign=bottom;endArrow=open;dashed=1;endSize=8;exitX=0;exitY=0.75;shadow=0;strokeWidth=1;exitDx=0;exitDy=0;" parent="1" edge="1">
          <mxGeometry relative="1" as="geometry">
            <mxPoint x="180" y="570" as="targetPoint" />
            <mxPoint x="757.5" y="570" as="sourcePoint" />
          </mxGeometry>
        </mxCell>
        <mxCell id="4wuBC6g0dBS8VItcJeyY-51" value="" style="edgeStyle=elbowEdgeStyle;elbow=horizontal;endArrow=classic;html=1;exitX=1.237;exitY=0.399;exitDx=0;exitDy=0;exitPerimeter=0;" parent="1" source="3nuBFxr9cyL0pnOWT2aG-2" edge="1">
          <mxGeometry width="50" height="50" relative="1" as="geometry">
            <mxPoint x="180" y="588" as="sourcePoint" />
            <mxPoint x="180" y="610" as="targetPoint" />
            <Array as="points">
              <mxPoint x="240" y="610" />
            </Array>
          </mxGeometry>
        </mxCell>
        <mxCell id="4wuBC6g0dBS8VItcJeyY-53" value="" style="verticalAlign=bottom;endArrow=open;dashed=1;endSize=8;shadow=0;strokeWidth=1;" parent="1" edge="1">
          <mxGeometry relative="1" as="geometry">
            <mxPoint x="180" y="660" as="targetPoint" />
            <mxPoint x="182" y="640" as="sourcePoint" />
            <Array as="points">
              <mxPoint x="229" y="640" />
              <mxPoint x="220" y="660" />
            </Array>
          </mxGeometry>
        </mxCell>
        <mxCell id="4wuBC6g0dBS8VItcJeyY-54" value="Timer" style="text;html=1;strokeColor=none;fillColor=none;align=center;verticalAlign=middle;whiteSpace=wrap;rounded=0;shadow=0;glass=0;sketch=0;" parent="1" vertex="1">
          <mxGeometry x="240" y="590" width="40" height="20" as="geometry" />
        </mxCell>
        <mxCell id="4wuBC6g0dBS8VItcJeyY-57" value="[isExit]" style="text;html=1;strokeColor=none;fillColor=none;align=center;verticalAlign=middle;whiteSpace=wrap;rounded=0;shadow=0;glass=0;sketch=0;" parent="1" vertex="1">
          <mxGeometry x="84" y="760" width="40" height="20" as="geometry" />
        </mxCell>
        <mxCell id="4wuBC6g0dBS8VItcJeyY-66" value="" style="rounded=0;whiteSpace=wrap;html=1;shadow=0;glass=0;sketch=0;fillColor=#f8cecc;strokeColor=#b85450;" parent="1" vertex="1">
          <mxGeometry x="591" y="794" width="20" height="116" as="geometry" />
        </mxCell>
        <mxCell id="4wuBC6g0dBS8VItcJeyY-67" value="" style="endArrow=none;dashed=1;html=1;fillColor=#f8cecc;strokeColor=#b85450;exitX=0.543;exitY=0.51;exitDx=0;exitDy=0;exitPerimeter=0;" parent="1" target="4wuBC6g0dBS8VItcJeyY-66" edge="1">
          <mxGeometry width="50" height="50" relative="1" as="geometry">
            <mxPoint x="602.1179999999999" y="1291.22" as="sourcePoint" />
            <mxPoint x="595.0406504065043" y="450" as="targetPoint" />
          </mxGeometry>
        </mxCell>
        <mxCell id="4wuBC6g0dBS8VItcJeyY-101" value="" style="shape=umlDestroy;whiteSpace=wrap;html=1;strokeWidth=3;rounded=0;shadow=0;glass=0;sketch=0;fillColor=#fff2cc;strokeColor=#d6b656;" parent="1" vertex="1">
          <mxGeometry x="760.5" y="1269" width="30" height="30" as="geometry" />
        </mxCell>
        <mxCell id="4wuBC6g0dBS8VItcJeyY-102" value="" style="shape=umlDestroy;whiteSpace=wrap;html=1;strokeWidth=3;rounded=0;shadow=0;glass=0;sketch=0;fillColor=#f8cecc;strokeColor=#b85450;" parent="1" vertex="1">
          <mxGeometry x="586" y="1280" width="30" height="30" as="geometry" />
        </mxCell>
        <mxCell id="4wuBC6g0dBS8VItcJeyY-104" value="" style="shape=umlDestroy;whiteSpace=wrap;html=1;strokeWidth=3;rounded=0;shadow=0;glass=0;sketch=0;fillColor=#e1d5e7;strokeColor=#9673a6;" parent="1" vertex="1">
          <mxGeometry x="155" y="1320" width="30" height="30" as="geometry" />
        </mxCell>
        <mxCell id="LfC7R43gUgTX7H64-Cro-1" value="[isFancy]" style="text;html=1;strokeColor=none;fillColor=none;align=center;verticalAlign=middle;whiteSpace=wrap;rounded=0;" vertex="1" parent="1">
          <mxGeometry x="372" y="247" width="40" height="20" as="geometry" />
        </mxCell>
        <mxCell id="4wuBC6g0dBS8VItcJeyY-73" value="execute()" style="text;html=1;strokeColor=none;fillColor=none;align=center;verticalAlign=middle;whiteSpace=wrap;rounded=0;shadow=0;glass=0;sketch=0;" parent="1" vertex="1">
          <mxGeometry x="629" y="799" width="40" height="20" as="geometry" />
        </mxCell>
      </root>
    </mxGraphModel>
  </diagram>
</mxfile>
